# xmcd
#
# Track frame offsets:
#	150
#	9368
#	19766
#	30720
#	39605
#	50949
#	62902
#	75977
#	87410
#	97745
#	110972
#	121581
#	131529
#	141779
#	157121
#	167349
#	182101
#	193483
#	201682
#	214574
#	230545
#	242335
#	254038
#	264401
#	276264
#
# Disc length: 3893 seconds
#
# Revision: 1
# Processed by: cddbd v1.5.2PL0 Copyright (c) Steve Scherf et al.
# Submitted via: audiograbber 1.83.01
#
DISCID=690f3319
DTITLE=FRANKIE LAINE - Frankie Laine - The Singing Cowboy
DYEAR=2014
DGENRE=
TTITLE0=Rawhide
TTITLE1=Gunfight At The O.K. Corral
TTITLE2=The 3:10 To Yuma
TTITLE3=Gunslinger
TTITLE4=North To Alaska
TTITLE5=Wanted Man
TTITLE6=Bowie Knife
TTITLE7=Where The Winds Blow
TTITLE8=The Hanging Tree
TTITLE9=Moonlight Gambler
TTITLE10=Dead Man's Hand
TTITLE11=Gamblin' Woman
TTITLE12=The Roving Gambler
TTITLE13=Deuces Wild
TTITLE14=Horses And Women
TTITLE15=The Wayfaring Stranger
TTITLE16=Along The Navajo Trail
TTITLE17=Riding Through The Night
TTITLE18=Cool Water
TTITLE19=Tumbling Tumbleweeds
TTITLE20=Song Of The Open Road
TTITLE21=Mule Train
TTITLE22=Champion The Wonder Horse
TTITLE23=Blowing Wild (The Ballad Of Black Gold)
TTITLE24=The Kid's Last Fight
EXTD=
EXTT0=
EXTT1=
EXTT2=
EXTT3=
EXTT4=
EXTT5=
EXTT6=
EXTT7=
EXTT8=
EXTT9=
EXTT10=
EXTT11=
EXTT12=
EXTT13=
EXTT14=
EXTT15=
EXTT16=
EXTT17=
EXTT18=
EXTT19=
EXTT20=
EXTT21=
EXTT22=
EXTT23=
EXTT24=
PLAYORDER=
